<svg id="_1-10" data-name="#1-10" xmlns="http://www.w3.org/2000/svg" xmlns:xlink="http://www.w3.org/1999/xlink" viewBox="0 0 400 300"><defs><linearGradient id="linear-gradient" x1="202.89" y1="171.26" x2="172.48" y2="196.02" gradientUnits="userSpaceOnUse"><stop offset="0" stop-color="#d4a397"/><stop offset="1" stop-color="#fee9d4"/></linearGradient><linearGradient id="linear-gradient-2" x1="260.25" y1="225.84" x2="208.43" y2="268.02" xlink:href="#linear-gradient"/></defs><title>-</title><path d="M57.75,206.06l145,82.87a5.58,5.58,0,0,0,5.59,0l134-78.43a5.58,5.58,0,0,0-.24-9.77L196,124.64a5.58,5.58,0,0,0-5.23,0L57.88,196.3A5.58,5.58,0,0,0,57.75,206.06Z" fill="#fee9d4"/><path d="M187.75,182,163,194a75.73,75.73,0,0,0,11.48,6.34l25.19-16.79" fill="url(#linear-gradient)"/><path d="M224.84,240.22l-36.37,19.67s12.92,13.54,25.69,18.91l44.48-27.28" fill="url(#linear-gradient-2)"/><path d="M125.18,175.64l63.3-34.75a7.75,7.75,0,0,0,4-6.79v-116a7.75,7.75,0,0,0-11.62-6.71l-63.3,36.55a7.75,7.75,0,0,0-3.87,6.71V168.85A7.75,7.75,0,0,0,125.18,175.64Z" fill="#68e1fd"/><path d="M148.7,64.35c3.76-3.86,7.81-5.9,11.61-5.9a10.26,10.26,0,0,1,2.13.22,12.26,12.26,0,0,1,7.19,5A70.81,70.81,0,0,1,175.07,57a20,20,0,0,0-10.88-6.53c-7.31-1.55-15,1.31-21.52,8a42.23,42.23,0,0,0-5.21,6.58c2.4,1.45,4.74,3,7.08,4.55A33.93,33.93,0,0,1,148.7,64.35Z" fill="#56403d"/><path d="M148.74,123.74c-4-1.21-7.36-4.92-9.45-10.55-2.48-6.67-2.86-15-1.07-23.48a48.08,48.08,0,0,1,5.38-14.23c-2.34-1.55-4.68-3.1-7.09-4.56A56.43,56.43,0,0,0,130,88c-2.12,10-1.62,20,1.41,28.16s8.15,13.52,14.61,15.57C146.83,129,147.71,126.35,148.74,123.74Z" fill="#ffa197"/><path d="M180.61,70.82a31.32,31.32,0,0,0-4.39-8.12,70.66,70.66,0,0,0-5.51,6.87,24.91,24.91,0,0,1,2,4.19c2.48,6.67,2.86,15,1.07,23.48s-5.52,15.94-10.48,21c-4.14,4.25-8.63,6.29-12.75,5.83-1.06,2.64-1.95,5.35-2.79,8.07h.06a18.92,18.92,0,0,0,3.92.41c6.07,0,12.2-2.91,17.6-8.45C175.39,117.93,179.9,109,182,99S183.64,79,180.61,70.82Z" fill="#f2f2f2"/><path d="M250.51,234s1,6,.78,7.87-4.29,7.07-6.13,7.82S241,251,242.08,253.8s12.16-1.94,13.07-2.66,1.9-7.79,2.22-7.49.17,8,1.27,7.87,0-19.39,0-19.39" fill="#ff831d"/><path d="M228.32,226.32s0,6.12-.45,7.89-5.33,6.32-7.27,6.78-4.33.65-3.68,3.62,12.32,0,13.32-.6,3.08-7.41,3.36-7.05-1.07,7.95,0,8,3-19.16,3-19.16" fill="#ff831d"/><path d="M251,237.21l.32,4.62s4.66-.32,7.65-3.05v-2.2" fill="#d17213"/><path d="M228.24,228.91l-.2,4.63s4.67.19,7.94-2.19l.24-2.19" fill="#d17213"/><path d="M201.17,87.54s-7.87-10-9.77-9.92-1.2,2-1.2,2-5-3.88-7.86-1.18c0,0-2.59-1.25-3.2,0a2.22,2.22,0,0,0,.46,2.36s-1.52,1.23-1,2.08a1.63,1.63,0,0,0,1.37.81s-.91.5-.69,1.26,8.92,7.62,21.19,7.93" fill="#f7931e"/><path d="M193,89h-.14a4.73,4.73,0,0,1-.61-1.36,6.24,6.24,0,0,1-.33-1.59,6.51,6.51,0,0,1,.56-3.16.21.21,0,0,0,0-.24A18.16,18.16,0,0,1,190,78.94c-.11-.23-.46,0-.34.2a18,18,0,0,0,1.86,3c.43.55.54.67.33,1.32a6.58,6.58,0,0,0-.3,1.39A6.85,6.85,0,0,0,192,87.9c.16.44.45,1.46,1,1.57a.2.2,0,0,0,.25-.14v-.06A.2.2,0,0,0,193,89Z" fill="#42210b"/><path d="M189.89,81.43l-7.38-3.25c-.23-.1-.44.24-.2.34l7.38,3.25C189.92,81.88,190.13,81.53,189.89,81.43Z" fill="#42210b"/><path d="M188.38,83.27a24.68,24.68,0,0,1-8.61-2.7c-.23-.12-.43.22-.2.34a25.22,25.22,0,0,0,8.81,2.76C188.64,83.7,188.63,83.3,188.38,83.27Z" fill="#42210b"/><path d="M187.73,85.53a35.25,35.25,0,0,1-8.13-2.12c-.24-.09-.34.29-.11.39a35.25,35.25,0,0,0,8.13,2.12C187.87,86,188,85.57,187.73,85.53Z" fill="#42210b"/><path d="M229.4,124.54s-10.85,62.4-10.63,101.82c0,0,14,6.84,22.44,2.48,0,0,3.22-93.5,7.09-100.07" fill="#5e331f"/><path d="M239.36,128.14s2.88,84.64,3.34,107.69c0,0,19,4.59,21.1-.66s-7.23-108.73-7.23-108.73" fill="#5e331f"/><path d="M263.37,235.83c5.49-11.63,4.32-30.71,2.68-40.19s-.57-19-.32-34.48-7.25-32.06-7.25-32.06L253,130" fill="#5e331f"/><path d="M242.53,130.73c5.43,1.37,11.47,2.49,16.52-.46,8.36-35.25,2.23-46.17-12.2-50.34-5.7-1.65-11.64,1.39-14.45,6.07-1.59,13.6-2.94,26.18-3,39.77,0,.68,4.82,2.39,5.48,2.65a53.44,53.44,0,0,0,6,1.87Z" fill="#ffa197"/><path d="M234.09,83.77S223.35,99,201.44,84c0,0-7.53,9.14-6.31,10.54S219.86,114,231,104.21" fill="#ffa197"/><path d="M200.12,82.89c-.54-.25.9,29.72.9,29.72l16.83,6.74-.77-18.76-1-11.17S200.66,83.14,200.12,82.89Z" fill="#68e1fd"/><path d="M104,206.09l29.1-16A3.56,3.56,0,0,0,135,187V133.66a3.56,3.56,0,0,0-5.34-3.08l-29.1,16.8a3.56,3.56,0,0,0-1.78,3.08V203A3.56,3.56,0,0,0,104,206.09Z" fill="#68e1fd"/><path d="M242.74,149.66a.44.44,0,0,0-.89,0q-1.13,43.56.62,87.12c0,.57.91.57.89,0Q241.61,193.25,242.74,149.66Z" fill="#fff"/><path d="M233.53,106.5c-.66-.23-10.47-2.76-10.47-2.76L221.9,117l12.9,4.61" fill="#ffa197"/><path d="M223.11,105.08s-3.11-2.3-3.63-2.59,1.21-6.4-3-7.47l.81,4.26s-8.07-.87-9.62-.19-.87,2.91-.87,2.91-2.42.07-2,1.73a2.27,2.27,0,0,0,1.84,1.82s-1.84,1.39-.78,2.56l1.07,1.16a4.44,4.44,0,0,0,1,2.41c.87,1,10.68-1.14,10.68-1.14l4.14,3.19Z" fill="#f7931e"/><path d="M214.89,101.82a51.39,51.39,0,0,1-8.26-.15c-.28,0-.28.42,0,.44a51.39,51.39,0,0,0,8.26.15C215.17,102.24,215.17,101.8,214.89,101.82Z" fill="#42210b"/><path d="M215.28,104.76a39.09,39.09,0,0,1-9.09.93.22.22,0,0,0,0,.44,39.61,39.61,0,0,0,9.21-1C215.67,105.13,215.56,104.7,215.28,104.76Z" fill="#42210b"/><path d="M214.83,107.85a45.41,45.41,0,0,1-8.06,1.32.22.22,0,0,0,0,.44c2.73,0,5.5-.82,8.18-1.34C215.23,108.22,215.11,107.8,214.83,107.85Z" fill="#42210b"/><path d="M240.47,80.69h0s-.83,7.54,4.92,5.31a48,48,0,0,0,7-3.41V78" fill="#cc6c62"/><path d="M236.84,64.75s-2.78,15.05,3.54,17.49,12.13-9,12.13-12.45C252.51,62.52,245.29,63.15,236.84,64.75Z" fill="#f7931e"/><path d="M272.94,103.19a4.81,4.81,0,0,0-1.14-2.59c-1.3-1.49-3.37-2.14-4.5-3.81-1.83-2.72,1.12-5.12,1.35-7.81.41-5-6-5.54-8.78-8a9.55,9.55,0,0,1-2.57-5c-1.6-5.73-1.93-12.77-7.52-16.3a12.08,12.08,0,0,0-5.8-1.55c-2.34-.13-5,.09-7,1.49a7.37,7.37,0,0,0-3.14,5.46c-.1,1.56.39,4,2.29,4.27,1.25.15,1.88-.81,2.67-1.58s1.42-2,2.31-2.82a4.1,4.1,0,0,1,2.11-1.1c3.19-.49.3,5.22.25,6.44a2.75,2.75,0,0,0,.54,1.84A3.65,3.65,0,0,0,246,73.25c1.52.42,4.17,1.2,3.24,3.38-.51,1.2-1.71,2.14-2.36,3.3-1.39,2.46-1.57,5.3.25,7.6a16.09,16.09,0,0,0,3,2.73,5.31,5.31,0,0,1,2.27,3.55c0,.09,0,.17,0,.26-.3,2.33-1.28,5.28-1.18,7.87a4.64,4.64,0,0,0,.67,2.67,8.2,8.2,0,0,0,1.93,2.46,12.92,12.92,0,0,0,12.3,2.5c2.09-.62,4.5-1.42,5.93-3.18A4.27,4.27,0,0,0,272.94,103.19Zm-5.07-14.12a5.23,5.23,0,0,0,0-1,4.63,4.63,0,0,0-.16-.72A3.57,3.57,0,0,1,267.88,89.06Z" fill="#5e331f"/><ellipse cx="236.73" cy="73.15" rx="2.14" ry="2.48" fill="none" stroke="#42210b" stroke-miterlimit="10" stroke-width="0.5"/><ellipse cx="242.93" cy="73.62" rx="2.14" ry="2.48" fill="none" stroke="#42210b" stroke-miterlimit="10" stroke-width="0.5"/><path d="M240.95,73c0-.23-.34-.31-.52-.37a1.81,1.81,0,0,0-.47-.08q.07-.3.12-.61c0-.24-.32-.34-.37-.1s-.1.5-.16.75h-.06c-.26.07-1.05.53-.7.87a.19.19,0,0,0,.32-.19.67.67,0,0,1,.34-.27c-.07.29-.15.59-.24.88-.23.75-.71,1.5-.87,2.26-.12.56.28.76.82.89a.19.19,0,0,0,.1-.37c-.66-.16-.5-.52-.28-1s.3-.76.44-1.15.32-1,.45-1.57a1.37,1.37,0,0,1,.34,0,1.54,1.54,0,0,1,.36.11.17.17,0,0,0,.23.17h0A.2.2,0,0,0,240.95,73Z" fill="#42210b"/><path d="M243.22,77.38a3,3,0,0,1-2.35,1,.19.19,0,0,0,0,.38,3.42,3.42,0,0,0,2.62-1.1C243.65,77.47,243.39,77.2,243.22,77.38Z" fill="#42210b"/><path d="M229.39,119.36s22.48,7.85,32.41-3l-1.61,8.84A30.52,30.52,0,0,1,229.39,119.36Z" fill="#cc6c62"/><path d="M247.5,103.51c-3,2.42-7.46,2.27-11.14,2.22a58.38,58.38,0,0,1-12.21-1.51c-.83-.19-1.19,1.09-.35,1.28A59.77,59.77,0,0,0,238,107.06c3.65-.05,7.45-.24,10.41-2.61C249.11,103.92,248.16,103,247.5,103.51Z" fill="#5e331f"/><path d="M230.72,94.87,230,105.31c-.06.85,1.28.85,1.33,0l.68-10.44C232.11,94,230.78,94,230.72,94.87Z" fill="#5e331f"/><ellipse cx="89.69" cy="102.01" rx="20.22" ry="12.97" transform="translate(-21.62 179.86) rotate(-83.65)" fill="#ff831d"/><path d="M93.71,99.13,91,101.87V90a1.55,1.55,0,0,0-3.09,0v15.69a1.57,1.57,0,0,0,2.58,1.07l0,0,0,0,5.39-5.39A1.55,1.55,0,0,0,93.71,99.13Z" fill="#56403d"/><path d="M105.8,168.94v12.77c0,3.71,5.76,3.72,5.76,0V168.94C111.56,165.23,105.8,165.22,105.8,168.94Z" fill="#56403d"/><path d="M113.63,155.84v20.6c0,3.71,5.76,3.72,5.76,0v-20.6C119.4,152.13,113.63,152.12,113.63,155.84Z" fill="#ffa197"/><path d="M122.92,140.91v31.63c0,3.71,5.76,3.72,5.76,0V140.91C128.68,137.2,122.92,137.19,122.92,140.91Z" fill="#f2f2f2"/><path d="M115.75,185.28,108.62,189c-1,.53-.12,2.06.9,1.53l7.13-3.74C117.66,186.28,116.76,184.75,115.75,185.28Z" fill="#f2f2f2"/><path d="M128.24,184.35q-9.94,5.33-20.09,10.27c-1,.5-.13,2,.9,1.53q10.15-4.94,20.09-10.27C130.14,185.34,129.25,183.81,128.24,184.35Z" fill="#f2f2f2"/><ellipse cx="159.14" cy="91.95" rx="9.54" ry="5.26" transform="translate(50.14 239.94) rotate(-83.65)" fill="#f2f2f2"/><path d="M181.08,134.24,141.66,154a1.33,1.33,0,0,0,1.19,2.38l39.42-19.8A1.33,1.33,0,0,0,181.08,134.24Z" fill="#f2f2f2"/><path d="M181.08,128.14l-39.42,19.8a1.33,1.33,0,0,0,1.19,2.38l39.42-19.8A1.33,1.33,0,0,0,181.08,128.14Z" fill="#f2f2f2"/><path d="M203.19,140.13a2.18,2.18,0,0,0-1.1.09c-.95,1.7-1.91,3.39-2.82,5.11l-1.72,4.17c-.42,1-.86,2.05-1.25,3.09-.7,2.45-1.18,5-1.69,7.46a2.17,2.17,0,0,0,1.17.72c1-1.28,2.35-2,3.69-2.91a14.49,14.49,0,0,0,4.32-5.49,16.51,16.51,0,0,0,1-2.54c.15-.9.27-1.81.37-2.73A54.76,54.76,0,0,1,203.19,140.13Z" fill="#1b896c"/><path d="M185.39,159.16a.66.66,0,0,1-.15-.22c-1.06-.53-2.13-1-3.22-1.51-.34-.25-.68-.48-1-.71a.59.59,0,0,1-.47.19,27.84,27.84,0,0,1-4.72-.53,1.91,1.91,0,0,0-.16.42,12.26,12.26,0,0,1,2.75,5.74c.3.34.63.71,1,1.08,1.56.62,3.69.49,5.47.72a3,3,0,0,0,.2-.56l.08,0a14,14,0,0,1,1.75.78,7,7,0,0,1,3.23,1.33,2.2,2.2,0,0,0,.71-.44C189,163.4,187.38,161.11,185.39,159.16Z" fill="#1b896c"/><path d="M185.18,172.92l2.24,10.47a2.35,2.35,0,0,0,1.26,1.62c1.31.64,4,1.31,9.11.38a2.37,2.37,0,0,0,1.89-1.82l2.3-10.64" fill="#68e1fd"/><ellipse cx="193.58" cy="172.92" rx="8.41" ry="3.44" fill="#56403d"/><path d="M205.14,147c-.2-2.53-1.86-4.8-1.61-7.35,0-.47-.6-.55-.83-.22a50.52,50.52,0,0,0-8.26,21.42.45.45,0,0,0,0,.31,50.45,50.45,0,0,0-.31,10.34,6.42,6.42,0,0,0,.88-.14,49.86,49.86,0,0,1,.33-10.14c1.5-1.77,3.61-2.62,5.41-4a11.52,11.52,0,0,0,3.48-4.53A12,12,0,0,0,205.14,147Zm-1.79,5.3a11.2,11.2,0,0,1-4.52,5.09c-.84.53-1.66,1-2.44,1.59a76.58,76.58,0,0,0,4.13-9.73c.19-.54-.67-.77-.86-.24a75,75,0,0,1-3.88,9.19,49.74,49.74,0,0,1,6.89-17.13c.22,1.44.9,2.73,1.27,4.2A10.91,10.91,0,0,1,203.36,152.3Z" fill="#37b596"/><path d="M193.66,171.52c-.67-1.81-1.37-3.64-2.21-5.39a.45.45,0,0,0-.19-.43l0,0a20.6,20.6,0,0,0-4.14-5.79c-3.35-3.18-7.74-4-12.16-4.46-.45-.05-.53.49-.27.75a.42.42,0,0,0,.19.26c2.64,1.63,1.86,5.79,4.66,7.33,1.31.72,2.9.51,4.33.56a13.36,13.36,0,0,1,5.49,1.25,12.85,12.85,0,0,1,3,5.86A7.46,7.46,0,0,0,193.66,171.52Zm-12.16-12.08c-.54-.19-.77.66-.24.86a20.84,20.84,0,0,1,6.45,3.7,12.88,12.88,0,0,0-1.4-.32c-1.86-.3-4.71.28-6.35-.67-2.29-1.33-2.08-4.59-3.73-6.53,4,.53,7.78,1.49,10.72,4.51a18.77,18.77,0,0,1,2.74,3.68A21,21,0,0,0,181.49,159.43Z" fill="#37b596"/></svg>