<svg id="Layer_1" data-name="Layer 1" xmlns="http://www.w3.org/2000/svg" viewBox="0 0 400 300"><title>#53 astronaut</title><path d="M69.42,64.66s-34.82,15-21.63,66.94,63.39,21.32,80.79,59,28.28,93.63,151.55,77S383.71,123.69,357.87,98,316.72,41.07,251,49.45,137.42-13,69.42,64.66Z" fill="#e6e6e6" opacity="0.19"/><path d="M246,103.34s6.49-13.06,24.46-13S324.17,104,340.18,124.8c14.67,19,3.83,81.71-52.26,110.17a30.35,30.35,0,0,1-29.75-1.38l-23.09-14.4Z" fill="#ffd200"/><path d="M252.72,229.61l-50.52-1.09a68.06,68.06,0,0,0-47.64,18L148.67,252l-9.17-7.16,2.59-5a83.05,83.05,0,0,1,74-45.07h0Z" fill="#9c68fd"/><path d="M252.72,229.61l-50.52-1.09a68.06,68.06,0,0,0-47.64,18L148.67,252l-9.17-7.16,2.59-5a83.05,83.05,0,0,1,74-45.07h0Z" opacity="0.08"/><path d="M257.73,107.46s-26.77-14.52-54.53,3S145,139.17,120,111.22l-6.72,10.94s44.24,58.35,107.45,17.3Z" fill="#9c68fd"/><path d="M257.73,107.46s-26.77-14.52-54.53,3S145,139.17,120,111.22l-6.72,10.94s44.24,58.35,107.45,17.3Z" fill="#fff" opacity="0.46"/><circle cx="292.62" cy="96.7" r="23.08" fill="#e6e6e6"/><polygon points="270.59 103.57 305.01 116.18 299.2 125.13 268.21 112.06 270.59 103.57" fill="#24285b"/><path d="M268.21,112.06s-36.92-20.33-49.94,1.74-2.65,86.52-2.65,86.52l49.74,19.89s68.83-33,69.85-68S300.1,124.25,268.21,112.06Z" fill="#9c68fd"/><path d="M285.57,208.94s-26.51-36-73.09-36.78l-.75,8.09s38.06,13.69,53.63,40Z" fill="#ffd200"/><path d="M265.36,220.21S237.7,176.5,204,178.08s-16.78,64.85-16.78,64.85l17.66-1.79s-4.15-17.55-.2-27.93a8.25,8.25,0,0,1,14.61-1.47C226.88,223.24,245.54,245.22,265.36,220.21Z" fill="#9c68fd"/><path d="M306,132.48s-17.64,9.52-14.53,29.28S282.63,182,268.83,175.6s-30.37-16.38-30.37-16.38-9.57,15.6,1.92,18.82-6,9.93-6,9.93,22.59,15,31,32.24c0,0,25.38-13.73,30.17-18.43s25.57-18.17,25.57-18.17Z" opacity="0.08"/><path d="M181.92,233.58l21.33-3.18,4.58,18.91a7.35,7.35,0,0,1-5.18,8.83l-17.08,4.77a2.13,2.13,0,0,1-2.08-3.55l1.86-1.87a10,10,0,0,0,2.1-10.93Z" fill="#24285b"/><path d="M146,228.26l16.52,14.32L149.68,258a5.83,5.83,0,0,1-7.83,2.07l-16.4-9.17a2.73,2.73,0,0,1,1-5.1l10.6-1.18Z" fill="#24285b"/><path d="M121.47,132.55l10.14,9.83,12.12-15.7-17.94-13.17a26,26,0,0,1-5.52-5.52c-3.55-4.8-10.92-13.56-16.64-12.3-4.75,1-1.33,5.46,2.09,8.76a5,5,0,0,1,.13,7.06c-2.63,2.69-3.1,6.39,2.7,10.48A108.2,108.2,0,0,1,121.47,132.55Z" fill="#24285b"/><path d="M300.58,149.52c-3.7-16.64,15.6-28.24,28.79-17.43a32.76,32.76,0,0,1,11.39,18c5.59,23.2,11.18,46.4-18.66,54.74s-70.35-33.68-70.35-33.68L262.24,162s26.76,25.89,45,19.19C319.38,176.69,304.1,165.3,300.58,149.52Z" fill="#9c68fd"/><path d="M300.58,149.52c-3.7-16.64,15.6-28.24,28.79-17.43a32.76,32.76,0,0,1,11.39,18c5.59,23.2,11.18,46.4-18.66,54.74s-69.47-34.11-69.47-34.11l9.61-8.71s26.76,25.89,45,19.19C319.38,176.69,304.1,165.3,300.58,149.52Z" fill="#fff" opacity="0.46"/><path d="M251.75,171.11l22.53,22.09,11.07-16.58-22.29-16.81s-11.05-13.42-19.68-7.46S237.05,168.34,251.75,171.11Z" fill="#24285b"/><circle cx="286.22" cy="87.85" r="8.47" fill="#fff" opacity="0.59"/><circle cx="238.66" cy="123.36" r="10.06" fill="#24285b"/><circle cx="238.66" cy="123.36" r="5.08" fill="#fff" opacity="0.29"/><circle cx="90.2" cy="55.35" r="31.75" fill="#ffd200"/><path d="M58.55,53S40.07,59.14,42.71,71.85s64,4,84.34-5.19,18.63-20.86-7.34-23.28c0,0,5.53,11.14-10.52,15.17C90.3,63.29,56.07,72.43,58.55,53Z" fill="#ffd200"/><path d="M58.55,53S40.07,59.14,42.71,71.85s64,4,84.34-5.19,18.63-20.86-7.34-23.28c0,0,5.53,11.14-10.52,15.17C90.3,63.29,56.07,72.43,58.55,53Z" fill="#fff" opacity="0.46"/><ellipse cx="78.07" cy="35.63" rx="7" ry="5.3" transform="matrix(0.95, -0.3, 0.3, 0.95, -7.1, 25.1)" opacity="0.08"/><ellipse cx="93.72" cy="32.22" rx="3.7" ry="4.88" transform="translate(33.34 110.81) rotate(-71.44)" opacity="0.08"/><ellipse cx="89.35" cy="42.33" rx="3.69" ry="2.79" transform="translate(-8.59 28.8) rotate(-17.49)" opacity="0.08"/><circle cx="159.68" cy="47.78" r="3.19" fill="#a5a5a5" opacity="0.13"/><circle cx="70.14" cy="122.74" r="3.19" fill="#a5a5a5" opacity="0.13"/><circle cx="183.17" cy="100.88" r="3.19" fill="#a5a5a5" opacity="0.13"/><circle cx="161.35" cy="172.84" r="3.19" fill="#a5a5a5" opacity="0.13"/><circle cx="251.25" cy="66.45" r="3.19" fill="#a5a5a5" opacity="0.13"/><circle cx="350.6" cy="118.5" r="3.19" fill="#a5a5a5" opacity="0.13"/><circle cx="332.98" cy="221.37" r="3.19" fill="#a5a5a5" opacity="0.13"/><circle cx="235.5" cy="250.85" r="3.19" fill="#a5a5a5" opacity="0.13"/></svg>