<?xml version="1.0" encoding="utf-8"?>
<!-- Generator: Adobe Illustrator 23.0.2, SVG Export Plug-In . SVG Version: 6.00 Build 0)  -->
<svg version="1.1" id="Layer_1" xmlns="http://www.w3.org/2000/svg" xmlns:xlink="http://www.w3.org/1999/xlink" x="0px" y="0px"
	 viewBox="0 0 1920 1080" style="enable-background:new 0 0 1920 1080;" xml:space="preserve">
<style type="text/css">
	.st0{fill:url(#SVGID_1_);}
	.st1{fill:#FFFFFF;}
	.st2{fill:#00ACC1;}
</style>
<linearGradient id="SVGID_1_" gradientUnits="userSpaceOnUse" x1="584.7981" y1="540" x2="1254.1102" y2="540">
	<stop  offset="0" style="stop-color:#FFFFFF"/>
	<stop  offset="0" style="stop-color:#02FC09;stop-opacity:0.7291"/>
	<stop  offset="0.0634" style="stop-color:#00FF00;stop-opacity:0.7"/>
	<stop  offset="1" style="stop-color:#3FA9F5"/>
</linearGradient>
<ellipse class="st0" cx="919.45" cy="540" rx="334.66" ry="349.5"/>
<g>
	<g>
		<path class="st1" d="M581.74,357.88c21.85-4.46,65.62-8.34,107.24-8.34c50.64,0,81.82,5.28,108.69,21.74
			c25.72,14.42,43.81,40.85,43.81,76.41c0,34.09-18.95,66.22-60.35,82.42v1.47c41.96,11.61,73.16,45.37,73.16,94.98
			c0,35.48-15.47,63.17-38.23,82.3c-26.95,22.82-71.32,35.27-144.5,35.27c-40.95,0-71.2-2.84-89.81-5.72V357.88z M664.09,506.26
			h26.94c44.03,0,67-19.26,67-48.07c0-29.43-21.17-44.96-58.71-44.96c-18.17,0-28.42,1.22-35.23,2.7V506.26z M664.09,677.73
			c7.97,1.42,17.84,1.58,31.87,1.58c37.73,0,70.92-15.38,70.92-56.19c0-38.79-32.96-54.3-74.4-54.33h-28.4V677.73z"/>
		<path class="st1" d="M911.09,357.88c30.58-5.23,70.4-8.34,112.05-8.34c69.73,0,115.28,13.56,150.49,41.59
			c38.18,30.04,62.15,77.31,62.15,145.82c0,74.27-25.47,125.61-60.78,157c-38.65,33.97-97.87,50.18-169.51,50.18
			c-43.19,0-73.97-2.73-94.39-5.72V357.88z M994.08,674.13c7.25,1.42,18.85,1.51,28.98,1.51c75.27,0.68,124.74-43.16,124.74-135.81
			c0.17-80.52-44.53-122.86-115.98-122.86c-18.17,0-30.39,1.63-37.74,3.35V674.13z"/>
		<path class="st2" d="M1281.61,693.4c0-31.19,20.34-53.25,49.02-53.25c28.84,0,48.5,21.5,48.82,53.25
			c0,30.8-19.55,53.02-49.02,53.02C1301.66,746.42,1281.53,724.21,1281.61,693.4z"/>
	</g>
</g>
</svg>
