<?xml version="1.0" encoding="UTF-8"?>
<svg version="1.1" viewBox="0 0 1000 1000" xmlns="http://www.w3.org/2000/svg">
 <g transform="translate(0 -52.362)">
  <circle cx="500" cy="552.36" r="443.92" fill="#409fe2"/>
  <path d="m671.31 346.48a28.789 28.789 0 0 0 -27.805 21.337l-59.749 222.99h-223.35l-35.491-121.77h232.87a28.789 28.789 0 1 0 0 -57.573h-271.25a28.789 28.789 0 0 0 -27.637 36.841l52.268 179.34a28.789 28.789 0 0 0 27.637 20.732h244.94l30.088 112.3h-95.771a28.789 28.789 0 1 0 0 57.573h133.29a28.789 28.789 0 0 0 27.805 -36.239l-43.517-162.41 57.756-215.55h31.643a28.789 28.789 0 1 0 0 -57.573h-53.733z" color="#000000" color-rendering="auto" fill-opacity=".13333" image-rendering="auto" shape-rendering="auto" solid-color="#000000" style="block-progression:tb;isolation:auto;mix-blend-mode:normal;text-decoration-color:#000000;text-decoration-line:none;text-decoration-style:solid;text-indent:0;text-transform:none;white-space:normal"/>
  <path d="m665.31 340.48a28.789 28.789 0 0 0 -27.805 21.337l-59.749 222.99h-223.35l-35.491-121.77h232.87a28.789 28.789 0 1 0 0 -57.573h-271.25a28.789 28.789 0 0 0 -27.637 36.841l52.268 179.34a28.789 28.789 0 0 0 27.637 20.732h244.94l30.088 112.3h-95.771a28.789 28.789 0 1 0 0 57.573h133.29a28.789 28.789 0 0 0 27.805 -36.239l-43.517-162.41 57.756-215.55h31.643a28.789 28.789 0 1 0 0 -57.573h-53.733z" color="#000000" color-rendering="auto" fill="#e4ff1e" image-rendering="auto" shape-rendering="auto" solid-color="#000000" style="block-progression:tb;isolation:auto;mix-blend-mode:normal;text-decoration-color:#000000;text-decoration-line:none;text-decoration-style:solid;text-indent:0;text-transform:none;white-space:normal"/>
 </g>
</svg>
